<mxfile host="app.diagrams.net" modified="2023-11-28T09:32:31.159Z" agent="Mozilla/5.0 (Macintosh; Intel Mac OS X 10_15_7) AppleWebKit/605.1.15 (KHTML, like Gecko) Version/17.1 Safari/605.1.15" version="22.1.4" etag="H24wD-YJv8NVuHtTbjwo" type="github">
  <diagram name="Page-1" id="FRZESp8M_X1J2_qpog6L">
    <mxGraphModel>
      <root>
        <mxCell id="0" />
        <mxCell id="1" parent="0" />
      </root>
    </mxGraphModel>
  </diagram>
</mxfile>
